<?xml version="1.0" encoding="utf-8"?>
<!-- Generator: Adobe Illustrator 19.2.1, SVG Export Plug-In . SVG Version: 6.00 Build 0)  -->
<svg version="1.1" id="Layer_1" xmlns="http://www.w3.org/2000/svg" xmlns:xlink="http://www.w3.org/1999/xlink" x="0px" y="0px"
	 viewBox="0 0 483 250" style="enable-background:new 0 0 483 250;" xml:space="preserve">
<style type="text/css">
	.st0{fill:#EEEEEE;}
	.st1{fill:#AAAAAA;}
	.st2{enable-background:new    ;}
	.st3{fill:none;stroke:#AAAAAA;stroke-width:0.6236;stroke-miterlimit:10;}
</style>
<rect class="st0" width="483" height="250"/>
<g>
	<path class="st1" d="M170.7,108.2h-6.2v-7.6h6.3v-1.9c0-9.3,4.2-12.6,12.6-12.6c2.3,0,4,0.4,5.4,0.6l-0.6,7.5
		c-0.9-0.3-1.7-0.5-3.3-0.5c-2.7,0-3.7,1.9-3.7,5v1.9h7.4v7.6h-7.4V132h-10.5V108.2L170.7,108.2z"/>
	<polygon class="st1" points="194.1,86.8 204.5,86.8 204.5,132 194.1,132 	"/>
	<polygon class="st1" points="224,95.5 213.5,95.5 213.5,87.5 224,87.5 	"/>
	<polygon class="st1" points="213.5,100.6 224,100.6 224,132 213.5,132 	"/>
	<path class="st1" d="M255.4,109.6c-1.9-1.2-3.8-1.7-6.3-1.7c-4.5,0-8,3.3-8,8.7c0,5,4.1,8.3,8.6,8.3c2.4,0,4.8-0.5,6.5-1.5l0.2,8.1
		c-2.6,0.9-5.8,1.4-8.5,1.4c-10,0-17.6-6-17.6-16.4s7.6-16.4,17.6-16.4c3.1,0,5.9,0.5,8.3,1.7L255.4,109.6L255.4,109.6z"/>
	<polygon class="st1" points="260.8,86.8 271.2,86.8 271.2,113.8 271.4,113.8 280.1,100.6 291.5,100.6 281,115 292.4,132 279.7,132 
		271.4,116.5 271.2,116.5 271.2,132 260.8,132 	"/>
	<path class="st1" d="M318,109.3c-1.2-0.4-2.3-0.4-3.5-0.4c-4.9,0-7.6,3.7-7.6,9.8V132h-10.5v-31.4h9.5v5.8h0.1c1.8-4,4.4-6.5,9-6.5
		c1.2,0,2.5,0.2,3.5,0.4L318,109.3L318,109.3z"/>
</g>
<g class="st2">
	<path class="st1" d="M175.9,169.5h6v0.7h-5.2v3.5h5.1v0.7h-5.1v4.5h-0.8V169.5z"/>
	<path class="st1" d="M183.6,169.5h0.7v9.5h-0.7V169.5z"/>
	<path class="st1" d="M186.4,170.4c0-0.3,0.3-0.6,0.6-0.6c0.3,0,0.6,0.2,0.6,0.6s-0.3,0.6-0.6,0.6
		C186.7,171,186.4,170.8,186.4,170.4z M186.6,172.1h0.7v6.9h-0.7V172.1z"/>
	<path class="st1" d="M192.6,171.9c1.2,0,1.9,0.5,2.4,1.2l-0.5,0.5c-0.5-0.7-1.1-1-1.9-1c-1.6,0-2.6,1.3-2.6,2.9
		c0,1.6,1,2.9,2.6,2.9c0.8,0,1.4-0.3,1.9-1l0.5,0.5c-0.6,0.7-1.2,1.2-2.4,1.2c-2,0-3.3-1.6-3.3-3.6S190.6,171.9,192.6,171.9z"/>
	<path class="st1" d="M198.7,175.7l-1.3,1.2v2.1h-0.7v-9.5h0.7v6.5l4-3.9h1l-3.2,3.1l3.2,3.8h-1L198.7,175.7z"/>
	<path class="st1" d="M203.8,172.1h0.7v1.2c0.6-0.8,1.4-1.3,2.3-1.3v0.8c-0.1,0-0.2,0-0.4,0c-0.7,0-1.6,0.6-1.9,1.2v5h-0.7V172.1z"
		/>
	<path class="st1" d="M207.6,177.8c0.3,0,0.6,0.3,0.6,0.6c0,0.3-0.3,0.6-0.6,0.6s-0.6-0.3-0.6-0.6
		C206.9,178.1,207.2,177.8,207.6,177.8z"/>
	<path class="st1" d="M213.1,171.9c1.2,0,1.9,0.5,2.4,1.2l-0.5,0.5c-0.5-0.7-1.1-1-1.9-1c-1.6,0-2.6,1.3-2.6,2.9
		c0,1.6,1,2.9,2.6,2.9c0.8,0,1.4-0.3,1.9-1l0.5,0.5c-0.6,0.7-1.2,1.2-2.4,1.2c-2,0-3.3-1.6-3.3-3.6S211.1,171.9,213.1,171.9z"/>
	<path class="st1" d="M216.8,175.5c0-2,1.3-3.6,3.3-3.6c2,0,3.3,1.6,3.3,3.6s-1.3,3.6-3.3,3.6C218,179.1,216.8,177.5,216.8,175.5z
		 M222.6,175.5c0-1.5-0.9-2.9-2.5-2.9c-1.6,0-2.5,1.4-2.5,2.9c0,1.5,0.9,2.9,2.5,2.9C221.7,178.5,222.6,177,222.6,175.5z"/>
	<path class="st1" d="M233.4,174.1c0-1-0.4-1.6-1.4-1.6c-0.7,0-1.6,0.5-2,1.2v5.2h-0.8v-4.8c0-1-0.4-1.6-1.4-1.6
		c-0.7,0-1.5,0.6-2,1.2v5.2h-0.7v-6.9h0.7v1c0.3-0.4,1.2-1.2,2.2-1.2c1.1,0,1.6,0.6,1.8,1.3c0.4-0.6,1.3-1.3,2.3-1.3
		c1.3,0,1.9,0.7,1.9,2.1v4.9h-0.7V174.1z"/>
	<path class="st1" d="M240,177.5c0.4,0.6,1.3,1,2.2,1c1.2,0,1.8-0.6,1.8-1.4c0-0.9-0.9-1.1-1.9-1.4c-1.2-0.3-2.4-0.6-2.4-1.9
		c0-1.1,0.9-1.9,2.4-1.9c1.2,0,2,0.5,2.5,1l-0.4,0.5c-0.4-0.5-1.1-0.9-2-0.9c-1.1,0-1.7,0.5-1.7,1.3c0,0.8,0.9,1,1.8,1.2
		c1.2,0.3,2.5,0.6,2.5,2.1c0,1.1-0.9,2-2.6,2c-1.1,0-2-0.3-2.6-1.1L240,177.5z"/>
	<path class="st1" d="M245.6,172.1h0.8l2.5,6l2.5-6h0.8l-2.9,6.9h-0.8L245.6,172.1z"/>
	<path class="st1" d="M257.9,178.1c-0.6,0.7-1.4,1-2.3,1c-1.2,0-2.4-0.8-2.4-2.3c0-1.5,1.2-2.3,2.4-2.3c1,0,1.7,0.3,2.3,1v-1.4
		c0-1-0.8-1.6-1.8-1.6c-0.9,0-1.5,0.3-2.1,1l-0.4-0.5c0.7-0.8,1.5-1.2,2.6-1.2c1.4,0,2.5,0.7,2.5,2.2v4.8h-0.7V178.1z M257.9,176.1
		c-0.5-0.6-1.3-1-2.1-1c-1.1,0-1.9,0.7-1.9,1.7c0,1,0.7,1.7,1.9,1.7c0.8,0,1.6-0.3,2.1-0.9V176.1z"/>
	<path class="st1" d="M260.9,172.1h0.7v1.2c0.6-0.8,1.4-1.3,2.3-1.3v0.8c-0.1,0-0.2,0-0.4,0c-0.7,0-1.6,0.6-1.9,1.2v5h-0.7V172.1z"
		/>
	<path class="st1" d="M269.8,178.1c-0.6,0.7-1.4,1-2.3,1c-1.2,0-2.4-0.8-2.4-2.3c0-1.5,1.2-2.3,2.4-2.3c1,0,1.7,0.3,2.3,1v-1.4
		c0-1-0.8-1.6-1.8-1.6c-0.9,0-1.5,0.3-2.1,1l-0.4-0.5c0.7-0.8,1.5-1.2,2.6-1.2c1.4,0,2.5,0.7,2.5,2.2v4.8h-0.7V178.1z M269.8,176.1
		c-0.5-0.6-1.3-1-2.1-1c-1.1,0-1.9,0.7-1.9,1.7c0,1,0.7,1.7,1.9,1.7c0.8,0,1.6-0.3,2.1-0.9V176.1z"/>
	<path class="st1" d="M272.8,172.1h0.7v1.2c0.6-0.8,1.4-1.3,2.3-1.3v0.8c-0.1,0-0.2,0-0.4,0c-0.7,0-1.6,0.6-1.9,1.2v5h-0.7V172.1z"
		/>
	<path class="st1" d="M280.8,170.4c0-0.3,0.3-0.6,0.6-0.6c0.3,0,0.6,0.2,0.6,0.6s-0.3,0.6-0.6,0.6C281,171,280.8,170.8,280.8,170.4z
		 M281,172.1h0.7v6.9H281V172.1z"/>
	<path class="st1" d="M286,175.7l-1.3,1.2v2.1H284v-9.5h0.7v6.5l4-3.9h1l-3.2,3.1l3.2,3.8h-1L286,175.7z"/>
	<path class="st1" d="M293.2,175.7l-1.3,1.2v2.1h-0.7v-9.5h0.7v6.5l4-3.9h1l-3.2,3.1l3.2,3.8h-1L293.2,175.7z"/>
	<path class="st1" d="M299.1,179.8c0,1.3-0.7,1.9-1.8,1.9c-0.3,0-0.6,0-0.8-0.1l0.1-0.6c0.2,0.1,0.4,0.1,0.6,0.1
		c0.7,0,1.1-0.4,1.1-1.3v-7.7h0.7V179.8z M298.2,170.4c0-0.3,0.3-0.6,0.6-0.6c0.3,0,0.6,0.2,0.6,0.6s-0.3,0.6-0.6,0.6
		C298.4,171,298.2,170.8,298.2,170.4z"/>
	<path class="st1" d="M304.3,171.9c2.1,0,3.2,1.7,3.2,3.6v0.2h-5.7c0.1,1.5,1.1,2.7,2.7,2.7c0.9,0,1.7-0.3,2.2-1l0.4,0.5
		c-0.7,0.7-1.5,1.1-2.7,1.1c-2,0-3.4-1.5-3.4-3.6C301,173.5,302.4,171.9,304.3,171.9z M301.8,175.2h5c0-1.2-0.8-2.6-2.5-2.6
		C302.7,172.6,301.9,174,301.8,175.2z"/>
</g>
<g class="st2">
	<path class="st1" d="M199.7,187.5h3c1.4,0,2.2,1,2.2,2.2c0,1.2-0.8,2.2-2.2,2.2h-1.8v2.6h-1.2V187.5z M202.5,188.6h-1.7v2.2h1.7
		c0.7,0,1.2-0.4,1.2-1.1S203.2,188.6,202.5,188.6z"/>
	<path class="st1" d="M205.9,189.4h1.1v0.7c0.4-0.5,1-0.8,1.6-0.8v1.1c-0.1,0-0.2,0-0.3,0c-0.5,0-1.1,0.3-1.3,0.7v3.4h-1.1V189.4z"
		/>
	<path class="st1" d="M214.3,191.9c0,1.4-1,2.6-2.6,2.6c-0.6,0-1.1-0.2-1.5-0.4l-0.3,0.3h-0.7l0.5-0.7c-0.4-0.5-0.7-1.1-0.7-1.8
		c0-1.4,1-2.6,2.6-2.6c0.6,0,1.1,0.1,1.4,0.4l0.2-0.3h0.7l-0.5,0.6C214.1,190.5,214.3,191.2,214.3,191.9z M210.6,192.9l2-2.4
		c-0.2-0.2-0.5-0.2-0.8-0.2c-0.9,0-1.4,0.8-1.4,1.7C210.3,192.3,210.4,192.6,210.6,192.9z M213.2,191.9c0-0.4-0.1-0.7-0.3-1l-2,2.4
		c0.2,0.2,0.5,0.3,0.8,0.3C212.7,193.6,213.2,192.8,213.2,191.9z"/>
	<path class="st1" d="M214.7,189.4h1.2l1.5,3.7l1.5-3.7h1.2l-2,5h-1.2L214.7,189.4z"/>
	<path class="st1" d="M223.1,188.1c0-0.4,0.3-0.7,0.7-0.7c0.4,0,0.7,0.3,0.7,0.7c0,0.4-0.3,0.7-0.7,0.7
		C223.4,188.8,223.1,188.5,223.1,188.1z M223.3,189.4h1.1v5h-1.1V189.4z"/>
	<path class="st1" d="M226.2,194.9c0.4,0.5,0.9,0.6,1.6,0.6c0.7,0,1.5-0.3,1.5-1.4v-0.6c-0.4,0.5-0.9,0.8-1.6,0.8
		c-1.3,0-2.2-0.9-2.2-2.6c0-1.6,0.9-2.6,2.2-2.6c0.6,0,1.2,0.3,1.6,0.8v-0.7h1.1v4.7c0,1.8-1.3,2.3-2.6,2.3c-0.8,0-1.5-0.2-2.1-0.7
		L226.2,194.9z M229.2,190.9c-0.2-0.4-0.8-0.7-1.3-0.7c-0.9,0-1.4,0.6-1.4,1.6s0.5,1.6,1.4,1.6c0.5,0,1-0.3,1.3-0.7V190.9z"/>
	<path class="st1" d="M232.8,194.7c0,1.1-0.6,1.7-1.7,1.7c-0.2,0-0.4,0-0.6-0.1l0.1-0.9c0.1,0,0.2,0,0.3,0c0.4,0,0.7-0.2,0.7-0.8
		v-5.3h1.1V194.7z M231.6,188.1c0-0.4,0.3-0.7,0.7-0.7c0.4,0,0.7,0.3,0.7,0.7c0,0.4-0.3,0.7-0.7,0.7
		C231.9,188.8,231.6,188.5,231.6,188.1z"/>
	<path class="st1" d="M236.4,189.3c1.5,0,2.5,1.1,2.5,2.7v0.3H235c0.1,0.8,0.6,1.4,1.6,1.4c0.5,0,1.1-0.2,1.4-0.5l0.5,0.7
		c-0.5,0.5-1.2,0.7-2,0.7c-1.5,0-2.6-1-2.6-2.6C233.9,190.5,235,189.3,236.4,189.3z M235,191.5h2.8c0-0.6-0.4-1.3-1.4-1.3
		C235.5,190.2,235.1,190.9,235,191.5z"/>
	<path class="st1" d="M243.3,191.3c0-0.8-0.4-1-1-1c-0.6,0-1,0.3-1.3,0.7v3.5H240v-5h1.1v0.7c0.3-0.4,1-0.8,1.8-0.8
		c1.1,0,1.6,0.6,1.6,1.6v3.5h-1.1V191.3z"/>
	<path class="st1" d="M248.5,193c0.4,0.4,1,0.7,1.7,0.7c0.6,0,1-0.3,1-0.7c0-0.4-0.5-0.5-1.1-0.7c-0.9-0.2-1.9-0.4-1.9-1.5
		c0-0.8,0.7-1.5,2-1.5c0.8,0,1.5,0.3,1.9,0.7l-0.5,0.8c-0.3-0.3-0.9-0.6-1.5-0.6c-0.6,0-0.9,0.3-0.9,0.6c0,0.4,0.5,0.5,1.1,0.6
		c0.9,0.2,1.9,0.4,1.9,1.6c0,0.9-0.7,1.5-2.1,1.5c-0.8,0-1.6-0.3-2.1-0.8L248.5,193z"/>
	<path class="st1" d="M255.6,189.3c1.5,0,2.5,1.1,2.5,2.7v0.3h-3.8c0.1,0.8,0.6,1.4,1.6,1.4c0.5,0,1.1-0.2,1.4-0.5l0.5,0.7
		c-0.5,0.5-1.2,0.7-2,0.7c-1.5,0-2.6-1-2.6-2.6C253,190.5,254.1,189.3,255.6,189.3z M254.2,191.5h2.8c0-0.6-0.4-1.3-1.4-1.3
		C254.6,190.2,254.2,190.9,254.2,191.5z"/>
	<path class="st1" d="M259,188.1c0-0.4,0.3-0.7,0.7-0.7c0.4,0,0.7,0.3,0.7,0.7c0,0.4-0.3,0.7-0.7,0.7
		C259.3,188.8,259,188.5,259,188.1z M259.1,189.4h1.1v5h-1.1V189.4z"/>
	<path class="st1" d="M264.9,191.3c0-0.8-0.4-1-1-1c-0.6,0-1,0.3-1.3,0.7v3.5h-1.1v-5h1.1v0.7c0.3-0.4,1-0.8,1.8-0.8
		c1.1,0,1.6,0.6,1.6,1.6v3.5h-1.1V191.3z"/>
	<path class="st1" d="M270.5,193.9c-0.4,0.4-0.9,0.7-1.6,0.7c-0.8,0-1.7-0.5-1.7-1.7c0-1.1,0.9-1.6,1.7-1.6c0.7,0,1.2,0.2,1.6,0.6
		v-0.7c0-0.6-0.5-0.9-1.2-0.9c-0.6,0-1,0.2-1.5,0.6l-0.4-0.8c0.6-0.5,1.3-0.8,2.1-0.8c1.1,0,2.1,0.5,2.1,1.8v3.3h-1.1V193.9z
		 M270.5,192.5c-0.2-0.3-0.7-0.5-1.2-0.5c-0.6,0-1.1,0.4-1.1,0.9c0,0.5,0.5,0.9,1.1,0.9c0.5,0,0.9-0.2,1.2-0.5V192.5z"/>
	<path class="st1" d="M273,189.4h1.1v0.7c0.4-0.5,1-0.8,1.6-0.8v1.1c-0.1,0-0.2,0-0.3,0c-0.5,0-1.1,0.3-1.3,0.7v3.4H273V189.4z"/>
	<path class="st1" d="M278.8,189.3c1.5,0,2.5,1.1,2.5,2.7v0.3h-3.8c0.1,0.8,0.7,1.4,1.6,1.4c0.5,0,1.1-0.2,1.4-0.5l0.5,0.7
		c-0.5,0.5-1.2,0.7-2,0.7c-1.5,0-2.6-1-2.6-2.6C276.2,190.5,277.3,189.3,278.8,189.3z M277.4,191.5h2.8c0-0.6-0.4-1.3-1.4-1.3
		C277.8,190.2,277.4,190.9,277.4,191.5z"/>
	<path class="st1" d="M282.8,193.1c0.4,0,0.7,0.3,0.7,0.7c0,0.4-0.3,0.7-0.7,0.7c-0.4,0-0.7-0.3-0.7-0.7
		C282.1,193.4,282.4,193.1,282.8,193.1z"/>
</g>
<text transform="matrix(1 0 0 1 174.0576 415.9482)" class="st1" style="font-family:'ProximaNova-Light'; font-size:14.2018px;">Flickr.com svarar ikkje</text>
<text transform="matrix(1 0 0 1 198.9397 431.4033)" class="st1" style="font-family:'ProximaNova-Semibold'; font-size:10.3204px;">Prøv igjen seinare.</text>
<line class="st3" x1="231" y1="152" x2="252" y2="152"/>
</svg>
