<?xml version="1.0" encoding="utf-8"?>
<!-- Generator: Adobe Illustrator 19.2.1, SVG Export Plug-In . SVG Version: 6.00 Build 0)  -->
<svg version="1.1" id="Layer_1" xmlns="http://www.w3.org/2000/svg" xmlns:xlink="http://www.w3.org/1999/xlink" x="0px" y="0px"
	 viewBox="0 0 483 250" style="enable-background:new 0 0 483 250;" xml:space="preserve">
<style type="text/css">
	.st0{fill:#EEEEEE;}
	.st1{enable-background:new    ;}
	.st2{fill:#AAAAAA;}
	.st3{fill:none;stroke:#AAAAAA;stroke-width:0.6236;stroke-miterlimit:10;}
	.st4{clip-path:url(#SVGID_2_);fill:#AAAAAA;}
	.st5{clip-path:url(#SVGID_4_);fill:#AAAAAA;}
	.st6{clip-path:url(#SVGID_6_);fill:#AAAAAA;}
	.st7{clip-path:url(#SVGID_8_);fill:#AAAAAA;}
	.st8{clip-path:url(#SVGID_10_);fill:#AAAAAA;}
	.st9{clip-path:url(#SVGID_12_);fill:#AAAAAA;}
	.st10{clip-path:url(#SVGID_14_);fill:#AAAAAA;}
	.st11{clip-path:url(#SVGID_16_);fill:#AAAAAA;}
	.st12{clip-path:url(#SVGID_18_);fill:#AAAAAA;}
	.st13{clip-path:url(#SVGID_20_);fill:#AAAAAA;}
</style>
<rect class="st0" width="483" height="250"/>
<g class="st1">
	<path class="st2" d="M158.7,172.7h-1.1V172h1.1v-0.6c0-1.3,0.7-2.1,1.9-2.1c0.3,0,0.7,0.1,0.9,0.2l-0.2,0.6
		c-0.2-0.1-0.4-0.2-0.6-0.2c-0.8,0-1.2,0.5-1.2,1.5v0.6h1.4v0.7h-1.4v6.2h-0.7V172.7z"/>
	<path class="st2" d="M161.8,175.5c0-2,1.3-3.6,3.3-3.6c2,0,3.3,1.6,3.3,3.6s-1.3,3.6-3.3,3.6C163.1,179.1,161.8,177.5,161.8,175.5z
		 M167.6,175.5c0-1.5-0.9-2.9-2.5-2.9c-1.6,0-2.5,1.4-2.5,2.9c0,1.5,0.9,2.9,2.5,2.9C166.7,178.4,167.6,177,167.6,175.5z"/>
	<path class="st2" d="M174.9,177.9c-0.6,0.6-1.5,1.2-2.5,1.2c-1.4,0-2.2-0.7-2.2-2.2V172h0.7v4.7c0,1.3,0.7,1.7,1.7,1.7
		c0.9,0,1.8-0.5,2.2-1.1V172h0.7v6.9h-0.7V177.9z"/>
	<path class="st2" d="M178,172h0.7v1.2c0.6-0.8,1.4-1.3,2.3-1.3v0.8c-0.1,0-0.2,0-0.4,0c-0.7,0-1.6,0.6-1.9,1.2v5H178V172z"/>
	<path class="st2" d="M182.3,177.4c0.4,0.6,1.3,1,2.2,1c1.2,0,1.8-0.6,1.8-1.4c0-0.9-0.9-1.1-1.9-1.4c-1.2-0.3-2.4-0.6-2.4-1.9
		c0-1.1,0.9-1.9,2.4-1.9c1.2,0,2,0.5,2.5,1l-0.4,0.5c-0.4-0.5-1.1-0.9-2-0.9c-1.1,0-1.7,0.5-1.7,1.3c0,0.8,0.9,1,1.8,1.2
		c1.2,0.3,2.5,0.6,2.5,2.1c0,1.1-0.9,2-2.6,2c-1.1,0-2-0.3-2.6-1.1L182.3,177.4z"/>
	<path class="st2" d="M194,181.5v-3.7c-0.6,0.8-1.4,1.3-2.4,1.3c-1.8,0-3.1-1.4-3.1-3.6c0-2.2,1.2-3.6,3.1-3.6c1,0,1.9,0.6,2.4,1.3
		V172h0.8v9.5H194z M194,173.8c-0.4-0.7-1.3-1.2-2.3-1.2c-1.5,0-2.4,1.3-2.4,2.9s0.9,2.9,2.4,2.9c1,0,1.9-0.6,2.3-1.3V173.8z"/>
	<path class="st2" d="M201.7,177.9c-0.6,0.6-1.5,1.2-2.5,1.2c-1.4,0-2.2-0.7-2.2-2.2V172h0.7v4.7c0,1.3,0.7,1.7,1.7,1.7
		c0.9,0,1.8-0.5,2.2-1.1V172h0.7v6.9h-0.7V177.9z"/>
	<path class="st2" d="M209.1,178.1c-0.6,0.7-1.4,1-2.3,1c-1.2,0-2.4-0.8-2.4-2.3c0-1.5,1.2-2.3,2.4-2.3c1,0,1.7,0.3,2.3,1v-1.4
		c0-1-0.8-1.6-1.8-1.6c-0.9,0-1.5,0.3-2.1,1l-0.4-0.5c0.7-0.8,1.5-1.2,2.6-1.2c1.4,0,2.5,0.7,2.5,2.2v4.8h-0.7V178.1z M209.1,176
		c-0.5-0.6-1.3-1-2.1-1c-1.1,0-1.9,0.7-1.9,1.7c0,1,0.7,1.7,1.9,1.7c0.8,0,1.6-0.3,2.1-0.9V176z"/>
	<path class="st2" d="M212.2,172h0.7v1.2c0.6-0.8,1.4-1.3,2.3-1.3v0.8c-0.1,0-0.2,0-0.4,0c-0.7,0-1.6,0.6-1.9,1.2v5h-0.7V172z"/>
	<path class="st2" d="M219.6,171.9c2.1,0,3.2,1.7,3.2,3.6v0.2h-5.7c0.1,1.5,1.1,2.7,2.7,2.7c0.9,0,1.7-0.3,2.2-1l0.4,0.5
		c-0.7,0.7-1.5,1.1-2.7,1.1c-2,0-3.4-1.5-3.4-3.6C216.3,173.5,217.7,171.9,219.6,171.9z M217.1,175.1h5c0-1.2-0.8-2.6-2.5-2.6
		C217.9,172.5,217.1,173.9,217.1,175.1z"/>
	<path class="st2" d="M225,177.8c0.3,0,0.6,0.3,0.6,0.6c0,0.3-0.3,0.6-0.6,0.6s-0.6-0.3-0.6-0.6C224.4,178.1,224.6,177.8,225,177.8z
		"/>
	<path class="st2" d="M230.5,171.9c1.2,0,1.9,0.5,2.4,1.2l-0.5,0.5c-0.5-0.7-1.1-1-1.9-1c-1.6,0-2.6,1.3-2.6,2.9
		c0,1.6,1,2.9,2.6,2.9c0.8,0,1.4-0.3,1.9-1l0.5,0.5c-0.6,0.7-1.2,1.2-2.4,1.2c-2,0-3.3-1.6-3.3-3.6S228.5,171.9,230.5,171.9z"/>
	<path class="st2" d="M234.2,175.5c0-2,1.3-3.6,3.3-3.6c2,0,3.3,1.6,3.3,3.6s-1.3,3.6-3.3,3.6C235.5,179.1,234.2,177.5,234.2,175.5z
		 M240,175.5c0-1.5-0.9-2.9-2.5-2.9c-1.6,0-2.5,1.4-2.5,2.9c0,1.5,0.9,2.9,2.5,2.9C239.1,178.4,240,177,240,175.5z"/>
	<path class="st2" d="M250.9,174.1c0-1-0.4-1.6-1.4-1.6c-0.7,0-1.6,0.5-2,1.2v5.2h-0.8v-4.8c0-1-0.4-1.6-1.4-1.6
		c-0.7,0-1.5,0.6-2,1.2v5.2h-0.7V172h0.7v1c0.3-0.4,1.2-1.2,2.2-1.2c1.1,0,1.6,0.6,1.8,1.3c0.4-0.6,1.3-1.3,2.3-1.3
		c1.3,0,1.9,0.7,1.9,2.1v4.9h-0.7V174.1z"/>
	<path class="st2" d="M257.4,177.4c0.4,0.6,1.3,1,2.2,1c1.2,0,1.8-0.6,1.8-1.4c0-0.9-0.9-1.1-1.9-1.4c-1.2-0.3-2.4-0.6-2.4-1.9
		c0-1.1,0.9-1.9,2.4-1.9c1.2,0,2,0.5,2.5,1l-0.4,0.5c-0.4-0.5-1.1-0.9-2-0.9c-1.1,0-1.7,0.5-1.7,1.3c0,0.8,0.9,1,1.8,1.2
		c1.2,0.3,2.5,0.6,2.5,2.1c0,1.1-0.9,2-2.6,2c-1.1,0-2-0.3-2.6-1.1L257.4,177.4z"/>
	<path class="st2" d="M263,172h0.8l2.5,6l2.5-6h0.8l-2.9,6.9h-0.8L263,172z"/>
	<path class="st2" d="M275.3,178.1c-0.6,0.7-1.4,1-2.3,1c-1.2,0-2.4-0.8-2.4-2.3c0-1.5,1.2-2.3,2.4-2.3c1,0,1.7,0.3,2.3,1v-1.4
		c0-1-0.8-1.6-1.8-1.6c-0.9,0-1.5,0.3-2.1,1l-0.4-0.5c0.7-0.8,1.5-1.2,2.6-1.2c1.4,0,2.5,0.7,2.5,2.2v4.8h-0.7V178.1z M275.3,176
		c-0.5-0.6-1.3-1-2.1-1c-1.1,0-1.9,0.7-1.9,1.7c0,1,0.7,1.7,1.9,1.7c0.8,0,1.6-0.3,2.1-0.9V176z"/>
	<path class="st2" d="M278.3,172h0.7v1.2c0.6-0.8,1.4-1.3,2.3-1.3v0.8c-0.1,0-0.2,0-0.4,0c-0.7,0-1.6,0.6-1.9,1.2v5h-0.7V172z"/>
	<path class="st2" d="M287.2,178.1c-0.6,0.7-1.4,1-2.3,1c-1.2,0-2.4-0.8-2.4-2.3c0-1.5,1.2-2.3,2.4-2.3c1,0,1.7,0.3,2.3,1v-1.4
		c0-1-0.8-1.6-1.8-1.6c-0.9,0-1.5,0.3-2.1,1l-0.4-0.5c0.7-0.8,1.5-1.2,2.6-1.2c1.4,0,2.5,0.7,2.5,2.2v4.8h-0.7V178.1z M287.2,176
		c-0.5-0.6-1.3-1-2.1-1c-1.1,0-1.9,0.7-1.9,1.7c0,1,0.7,1.7,1.9,1.7c0.8,0,1.6-0.3,2.1-0.9V176z"/>
	<path class="st2" d="M290.2,172h0.7v1.2c0.6-0.8,1.4-1.3,2.3-1.3v0.8c-0.1,0-0.2,0-0.4,0c-0.7,0-1.6,0.6-1.9,1.2v5h-0.7V172z"/>
	<path class="st2" d="M298.2,170.4c0-0.3,0.3-0.6,0.6-0.6c0.3,0,0.6,0.2,0.6,0.6s-0.3,0.6-0.6,0.6
		C298.5,171,298.2,170.7,298.2,170.4z M298.4,172h0.7v6.9h-0.7V172z"/>
	<path class="st2" d="M303.5,175.6l-1.3,1.2v2.1h-0.7v-9.5h0.7v6.5l4-3.9h1l-3.2,3.1l3.2,3.8h-1L303.5,175.6z"/>
	<path class="st2" d="M310.6,175.6l-1.3,1.2v2.1h-0.7v-9.5h0.7v6.5l4-3.9h1l-3.2,3.1l3.2,3.8h-1L310.6,175.6z"/>
	<path class="st2" d="M316.5,179.8c0,1.3-0.7,1.9-1.8,1.9c-0.3,0-0.6,0-0.8-0.1l0.1-0.6c0.2,0.1,0.4,0.1,0.6,0.1
		c0.7,0,1.1-0.4,1.1-1.3V172h0.7V179.8z M315.6,170.4c0-0.3,0.3-0.6,0.6-0.6c0.3,0,0.6,0.2,0.6,0.6s-0.3,0.6-0.6,0.6
		C315.9,171,315.6,170.7,315.6,170.4z"/>
	<path class="st2" d="M321.7,171.9c2.1,0,3.2,1.7,3.2,3.6v0.2h-5.7c0.1,1.5,1.1,2.7,2.7,2.7c0.9,0,1.7-0.3,2.2-1l0.4,0.5
		c-0.7,0.7-1.5,1.1-2.7,1.1c-2,0-3.4-1.5-3.4-3.6C318.4,173.5,319.8,171.9,321.7,171.9z M319.2,175.1h5c0-1.2-0.8-2.6-2.5-2.6
		C320.1,172.5,319.3,173.9,319.2,175.1z"/>
</g>
<g class="st1">
	<path class="st2" d="M199.7,187.5h3c1.4,0,2.2,1,2.2,2.2c0,1.2-0.8,2.2-2.2,2.2h-1.8v2.6h-1.2V187.5z M202.5,188.5h-1.7v2.2h1.7
		c0.7,0,1.2-0.4,1.2-1.1S203.2,188.5,202.5,188.5z"/>
	<path class="st2" d="M205.9,189.4h1.1v0.7c0.4-0.5,1-0.8,1.6-0.8v1.1c-0.1,0-0.2,0-0.3,0c-0.5,0-1.1,0.3-1.3,0.7v3.4h-1.1V189.4z"
		/>
	<path class="st2" d="M214.3,191.9c0,1.4-1,2.6-2.6,2.6c-0.6,0-1.1-0.2-1.5-0.4l-0.3,0.3h-0.7l0.5-0.7c-0.4-0.5-0.7-1.1-0.7-1.8
		c0-1.4,1-2.6,2.6-2.6c0.6,0,1.1,0.1,1.4,0.4l0.2-0.3h0.7l-0.5,0.6C214.1,190.5,214.3,191.1,214.3,191.9z M210.6,192.8l2-2.4
		c-0.2-0.2-0.5-0.2-0.8-0.2c-0.9,0-1.4,0.8-1.4,1.7C210.3,192.2,210.4,192.6,210.6,192.8z M213.2,191.9c0-0.4-0.1-0.7-0.3-1l-2,2.4
		c0.2,0.2,0.5,0.3,0.8,0.3C212.7,193.5,213.2,192.7,213.2,191.9z"/>
	<path class="st2" d="M214.7,189.4h1.2l1.5,3.7l1.5-3.7h1.2l-2,5h-1.2L214.7,189.4z"/>
	<path class="st2" d="M223.1,188.1c0-0.4,0.3-0.7,0.7-0.7c0.4,0,0.7,0.3,0.7,0.7c0,0.4-0.3,0.7-0.7,0.7
		C223.4,188.8,223.1,188.5,223.1,188.1z M223.3,189.4h1.1v5h-1.1V189.4z"/>
	<path class="st2" d="M226.2,194.9c0.4,0.5,0.9,0.6,1.6,0.6c0.7,0,1.5-0.3,1.5-1.4v-0.6c-0.4,0.5-0.9,0.8-1.6,0.8
		c-1.3,0-2.2-0.9-2.2-2.6c0-1.6,0.9-2.6,2.2-2.6c0.6,0,1.2,0.3,1.6,0.8v-0.7h1.1v4.7c0,1.8-1.3,2.3-2.6,2.3c-0.8,0-1.5-0.2-2.1-0.7
		L226.2,194.9z M229.2,190.9c-0.2-0.4-0.8-0.7-1.3-0.7c-0.9,0-1.4,0.6-1.4,1.6s0.5,1.6,1.4,1.6c0.5,0,1-0.3,1.3-0.7V190.9z"/>
	<path class="st2" d="M232.8,194.6c0,1.1-0.6,1.7-1.7,1.7c-0.2,0-0.4,0-0.6-0.1l0.1-0.9c0.1,0,0.2,0,0.3,0c0.4,0,0.7-0.2,0.7-0.8
		v-5.3h1.1V194.6z M231.6,188.1c0-0.4,0.3-0.7,0.7-0.7c0.4,0,0.7,0.3,0.7,0.7c0,0.4-0.3,0.7-0.7,0.7
		C231.9,188.8,231.6,188.5,231.6,188.1z"/>
	<path class="st2" d="M236.4,189.3c1.5,0,2.5,1.1,2.5,2.7v0.3H235c0.1,0.8,0.6,1.4,1.6,1.4c0.5,0,1.1-0.2,1.4-0.5l0.5,0.7
		c-0.5,0.5-1.2,0.7-2,0.7c-1.5,0-2.6-1-2.6-2.6C233.9,190.4,235,189.3,236.4,189.3z M235,191.5h2.8c0-0.6-0.4-1.3-1.4-1.3
		C235.5,190.1,235.1,190.8,235,191.5z"/>
	<path class="st2" d="M243.3,191.2c0-0.8-0.4-1-1-1c-0.6,0-1,0.3-1.3,0.7v3.5H240v-5h1.1v0.7c0.3-0.4,1-0.8,1.8-0.8
		c1.1,0,1.6,0.6,1.6,1.6v3.5h-1.1V191.2z"/>
	<path class="st2" d="M248.5,192.9c0.4,0.4,1,0.7,1.7,0.7c0.6,0,1-0.3,1-0.7c0-0.4-0.5-0.5-1.1-0.7c-0.9-0.2-1.9-0.4-1.9-1.5
		c0-0.8,0.7-1.5,2-1.5c0.8,0,1.5,0.3,1.9,0.7l-0.5,0.8c-0.3-0.3-0.9-0.6-1.5-0.6c-0.6,0-0.9,0.3-0.9,0.6c0,0.4,0.5,0.5,1.1,0.6
		c0.9,0.2,1.9,0.4,1.9,1.6c0,0.9-0.7,1.5-2.1,1.5c-0.8,0-1.6-0.3-2.1-0.8L248.5,192.9z"/>
	<path class="st2" d="M255.6,189.3c1.5,0,2.5,1.1,2.5,2.7v0.3h-3.8c0.1,0.8,0.6,1.4,1.6,1.4c0.5,0,1.1-0.2,1.4-0.5l0.5,0.7
		c-0.5,0.5-1.2,0.7-2,0.7c-1.5,0-2.6-1-2.6-2.6C253,190.4,254.1,189.3,255.6,189.3z M254.2,191.5h2.8c0-0.6-0.4-1.3-1.4-1.3
		C254.6,190.1,254.2,190.8,254.2,191.5z"/>
	<path class="st2" d="M259,188.1c0-0.4,0.3-0.7,0.7-0.7c0.4,0,0.7,0.3,0.7,0.7c0,0.4-0.3,0.7-0.7,0.7
		C259.3,188.8,259,188.5,259,188.1z M259.1,189.4h1.1v5h-1.1V189.4z"/>
	<path class="st2" d="M264.9,191.2c0-0.8-0.4-1-1-1c-0.6,0-1,0.3-1.3,0.7v3.5h-1.1v-5h1.1v0.7c0.3-0.4,1-0.8,1.8-0.8
		c1.1,0,1.6,0.6,1.6,1.6v3.5h-1.1V191.2z"/>
	<path class="st2" d="M270.5,193.8c-0.4,0.4-0.9,0.7-1.6,0.7c-0.8,0-1.7-0.5-1.7-1.7c0-1.1,0.9-1.6,1.7-1.6c0.7,0,1.2,0.2,1.6,0.6
		v-0.7c0-0.6-0.5-0.9-1.2-0.9c-0.6,0-1,0.2-1.5,0.6l-0.4-0.8c0.6-0.5,1.3-0.8,2.1-0.8c1.1,0,2.1,0.5,2.1,1.8v3.3h-1.1V193.8z
		 M270.5,192.5c-0.2-0.3-0.7-0.5-1.2-0.5c-0.6,0-1.1,0.4-1.1,0.9c0,0.5,0.5,0.9,1.1,0.9c0.5,0,0.9-0.2,1.2-0.5V192.5z"/>
	<path class="st2" d="M273,189.4h1.1v0.7c0.4-0.5,1-0.8,1.6-0.8v1.1c-0.1,0-0.2,0-0.3,0c-0.5,0-1.1,0.3-1.3,0.7v3.4H273V189.4z"/>
	<path class="st2" d="M278.8,189.3c1.5,0,2.5,1.1,2.5,2.7v0.3h-3.8c0.1,0.8,0.7,1.4,1.6,1.4c0.5,0,1.1-0.2,1.4-0.5l0.5,0.7
		c-0.5,0.5-1.2,0.7-2,0.7c-1.5,0-2.6-1-2.6-2.6C276.2,190.4,277.3,189.3,278.8,189.3z M277.4,191.5h2.8c0-0.6-0.4-1.3-1.4-1.3
		C277.8,190.1,277.4,190.8,277.4,191.5z"/>
	<path class="st2" d="M282.8,193c0.4,0,0.7,0.3,0.7,0.7c0,0.4-0.3,0.7-0.7,0.7c-0.4,0-0.7-0.3-0.7-0.7
		C282.1,193.4,282.4,193,282.8,193z"/>
</g>
<line class="st3" x1="231" y1="152" x2="252" y2="152"/>
<g>
	<g>
		<defs>
			<path id="SVGID_1_" d="M171.7,97.4c0,0-7.4,0-7.9,0c-0.5,0-1.1,0.6-1.1,1.1v19.9c0,3.3-1.2,5-4.2,5c-3,0-4.2-1.6-4.2-4.9V98.5
				c0-0.5-0.6-1.1-1.1-1.1h-7.9c-0.6,0-1,0.4-1,1v22.1c0,6.8,4.9,12.3,14.1,12.3c9.3,0,14.3-5.5,14.3-12.3V98.3
				C172.7,97.8,172.3,97.4,171.7,97.4"/>
		</defs>
		<use xlink:href="#SVGID_1_"  style="overflow:visible;fill-rule:evenodd;clip-rule:evenodd;fill:#AAAAAA;"/>
		<clipPath id="SVGID_2_">
			<use xlink:href="#SVGID_1_"  style="overflow:visible;"/>
		</clipPath>
		<rect x="143" y="96.1" class="st4" width="31" height="38"/>
	</g>
	<g>
		<defs>
			<path id="SVGID_3_" d="M228.7,111.5l-5.7-2c-1.7-0.6-1.9-1.5-1.9-2.1c0-0.9,0.8-1.8,2.5-1.8c1.8,0,4.5,0.5,7,2.5
				c0.4,0.3,0.9,0.2,1.2-0.1l4.4-5.6c0.3-0.4,0.2-0.9-0.1-1.2c-3.8-3.2-8.4-4.3-12.6-4.3c-8.2,0-13.1,5.1-13.1,10.6
				c0,4.4,2.5,8.4,7.9,10.2l5,1.7c2.5,0.8,2.9,1.5,2.9,2.5c0,0.9-1,2-3,2c-2.8,0-6.1-1.7-8.3-3.5c-0.4-0.3-0.8-0.3-1.1,0.1l-4.5,6
				c-0.3,0.4-0.2,0.9,0.1,1.2c3.3,2.8,8.1,4.9,14.3,4.9c7.7,0,13.3-4.5,13.3-11.2C237.1,117,234.2,113.3,228.7,111.5"/>
		</defs>
		<use xlink:href="#SVGID_3_"  style="overflow:visible;fill-rule:evenodd;clip-rule:evenodd;fill:#AAAAAA;"/>
		<clipPath id="SVGID_4_">
			<use xlink:href="#SVGID_3_"  style="overflow:visible;"/>
		</clipPath>
		<rect x="207.8" y="95.6" class="st5" width="30.5" height="38.5"/>
	</g>
	<g>
		<defs>
			<path id="SVGID_5_" d="M101.8,97.4H78.5c-0.6,0-1.1,0.6-1.1,1.1v32.9c0,0.5,0.5,1,1,1h8.2c0.5,0,0.9-0.5,0.9-1v-11.2h10.2
				c0.5,0,0.9-0.3,1.1-0.9l1.5-7.2c0.1-0.4-0.2-0.9-0.7-0.9h-12v-5.1h13.1c0.5,0,1-0.4,1.1-0.9l1.4-6.8
				C103.1,98,102.5,97.4,101.8,97.4"/>
		</defs>
		<use xlink:href="#SVGID_5_"  style="overflow:visible;fill-rule:evenodd;clip-rule:evenodd;fill:#AAAAAA;"/>
		<clipPath id="SVGID_6_">
			<use xlink:href="#SVGID_5_"  style="overflow:visible;"/>
		</clipPath>
		<rect x="76.1" y="96.1" class="st6" width="28.2" height="37.7"/>
	</g>
	<g>
		<defs>
			<path id="SVGID_7_" d="M403.1,106.3c0.5,0,1-0.4,1.1-0.9l1.4-6.8c0.1-0.6-0.3-1.2-0.9-1.2c0,0-22.7-0.1-23.4-0.1
				c-0.6,0-1.1,1.2-1.1,1.7v32.3c0,0.6,0.7,1.1,1.2,1.1h21.4c0.5,0,1-0.4,1.1-0.9l1.4-6.8c0.1-0.6-0.3-1.2-1.1-1.2h-13.9v-4.6h10.2
				c0.5,0,1-0.4,1.1-0.9l1.5-7c0.1-0.4-0.1-0.9-0.7-0.9h-12.1v-4H403.1L403.1,106.3z"/>
		</defs>
		<use xlink:href="#SVGID_7_"  style="overflow:visible;fill-rule:evenodd;clip-rule:evenodd;fill:#AAAAAA;"/>
		<clipPath id="SVGID_8_">
			<use xlink:href="#SVGID_7_"  style="overflow:visible;"/>
		</clipPath>
		<rect x="378.9" y="96.1" class="st7" width="28" height="37.8"/>
	</g>
	<g>
		<defs>
			<path id="SVGID_9_" d="M323.1,116.9l3.2-10.4l3.2,10.4H323.1L323.1,116.9z M332.9,98.2c-0.1-0.4-0.7-0.8-1.2-0.8h-10.6
				c-0.5,0-1,0.4-1.1,0.8l-10,33.5c-0.1,0.4,0.1,0.8,0.6,0.8h8.9c0.5,0,0.9-0.4,1.1-0.9l1.4-5.3h8.9l1.5,5.3
				c0.1,0.4,0.6,0.8,1.1,0.8h8.8c0.5,0,0.7-0.4,0.6-0.8L332.9,98.2L332.9,98.2z"/>
		</defs>
		<use xlink:href="#SVGID_9_"  style="overflow:visible;fill-rule:evenodd;clip-rule:evenodd;fill:#AAAAAA;"/>
		<clipPath id="SVGID_10_">
			<use xlink:href="#SVGID_9_"  style="overflow:visible;"/>
		</clipPath>
		<rect x="308.6" y="96.1" class="st8" width="35.6" height="37.8"/>
	</g>
	<g>
		<defs>
			<path id="SVGID_11_" d="M361.5,112.4h-5.2v-6.1h5c2.9,0,4.2,1.4,4.2,3.1C365.5,111.2,364.3,112.4,361.5,112.4L361.5,112.4
				L361.5,112.4z M369.3,119.1c4.2-2.1,6.4-5.3,6.4-10.2c0-6.1-4.9-11.6-13.3-11.6h-15.1c-0.5,0-1.1,0.5-1.1,1v33
				c0,0.5,0.5,1.1,1,1.1h7.9c0.5,0,1.1-0.6,1.1-1.1v-10.6h3.3l5.9,10.9c0.2,0.4,0.8,0.8,1.3,0.8h9.3c0.5,0,0.7-0.3,0.4-0.8
				L369.3,119.1L369.3,119.1z"/>
		</defs>
		<use xlink:href="#SVGID_11_"  style="overflow:visible;fill-rule:evenodd;clip-rule:evenodd;fill:#AAAAAA;"/>
		<clipPath id="SVGID_12_">
			<use xlink:href="#SVGID_11_"  style="overflow:visible;"/>
		</clipPath>
		<rect x="344.9" y="96.1" class="st9" width="33.1" height="37.8"/>
	</g>
	<g>
		<defs>
			<path id="SVGID_13_" d="M257.6,123.6c-4.5,0-7.6-3.9-7.6-8.8c0-4.8,3.1-8.8,7.6-8.8c4.5,0,7.6,3.9,7.6,8.8
				C265.2,119.7,262.2,123.6,257.6,123.6 M275.7,127.8c-1.1,0.4-3.2,1-5.6,0.4c0,0,0,0,0,0c0.4-0.3,0.7-0.6,1-1
				c4.7-5,6-12.4,3.7-18.7c-2.4-6.6-8.6-11-15.7-11.6c-7-0.6-14.2,2.9-17.6,9c-3.6,6.4-2.9,14.9,1.9,20.5c4.2,4.9,10.7,6.9,16.9,6
				c0.1,0.1,0.2,0.2,0.3,0.3c3.4,3.2,8.9,5,13.7,5l1.9-9.5C276.4,128,276.1,127.6,275.7,127.8"/>
		</defs>
		<use xlink:href="#SVGID_13_"  style="overflow:visible;fill-rule:evenodd;clip-rule:evenodd;fill:#AAAAAA;"/>
		<clipPath id="SVGID_14_">
			<use xlink:href="#SVGID_13_"  style="overflow:visible;"/>
		</clipPath>
		<rect x="238" y="95.6" class="st10" width="39.6" height="43.5"/>
	</g>
	<g>
		<defs>
			<path id="SVGID_15_" d="M122.2,123.6c-4.5,0-7.6-3.9-7.6-8.8c0-4.8,3.1-8.8,7.6-8.8c4.5,0,7.6,3.9,7.6,8.8
				C129.8,119.7,126.7,123.6,122.2,123.6 M123.7,97c-7-0.6-14.2,2.9-17.6,9c-3.6,6.4-2.9,14.9,1.9,20.5c6.9,8,20.2,8.3,27.6,0.7
				c4.7-5,6-12.4,3.7-18.7C137,102,130.7,97.5,123.7,97"/>
		</defs>
		<use xlink:href="#SVGID_15_"  style="overflow:visible;fill-rule:evenodd;clip-rule:evenodd;fill:#AAAAAA;"/>
		<clipPath id="SVGID_16_">
			<use xlink:href="#SVGID_15_"  style="overflow:visible;"/>
		</clipPath>
		<rect x="102.6" y="95.6" class="st11" width="39.2" height="38.5"/>
	</g>
	<g>
		<defs>
			<path id="SVGID_17_" d="M307.2,97.4c0,0-7.4,0-7.9,0c-0.5,0-1.1,0.6-1.1,1.1v20.1c0,3.3-1.2,4.9-4.2,4.9c-3,0-4.2-1.6-4.2-4.9
				V98.5c0-0.5-0.7-1.1-1.1-1.1H281c-0.4,0-1.1,0.7-1.1,1.1v21.9c0,6.8,4.9,12.3,14.1,12.3c9.3,0,14.3-5.5,14.3-12.3V98.5
				C308.2,98,307.8,97.4,307.2,97.4"/>
		</defs>
		<use xlink:href="#SVGID_17_"  style="overflow:visible;fill-rule:evenodd;clip-rule:evenodd;fill:#AAAAAA;"/>
		<clipPath id="SVGID_18_">
			<use xlink:href="#SVGID_17_"  style="overflow:visible;"/>
		</clipPath>
		<rect x="278.5" y="96.1" class="st12" width="31" height="38"/>
	</g>
	<g>
		<defs>
			<path id="SVGID_19_" d="M192.5,112.4h-5.2v-6.1h5c2.9,0,4.2,1.4,4.2,3.1C196.5,111.2,195.4,112.4,192.5,112.4L192.5,112.4
				L192.5,112.4z M200.3,119.1c4.2-2.1,6.4-5.3,6.4-10.2c0-6.1-4.9-11.6-13.3-11.6h-15.1c-0.5,0-1.1,0.6-1.1,1.1v32.9
				c0,0.5,0.5,1.1,1,1.1h7.9c0.5,0,1.1-0.6,1.1-1.1v-10.6h3.3l5.9,10.9c0.2,0.4,0.8,0.8,1.3,0.8h9.3c0.5,0,0.7-0.3,0.4-0.8
				L200.3,119.1L200.3,119.1z"/>
		</defs>
		<use xlink:href="#SVGID_19_"  style="overflow:visible;fill-rule:evenodd;clip-rule:evenodd;fill:#AAAAAA;"/>
		<clipPath id="SVGID_20_">
			<use xlink:href="#SVGID_19_"  style="overflow:visible;"/>
		</clipPath>
		<rect x="175.9" y="96.1" class="st13" width="33.1" height="37.8"/>
	</g>
</g>
<text transform="matrix(1 0 0 1 157.1498 404.4)" class="st2" style="font-family:'ProximaNova-Light'; font-size:14.2018px;">foursquare.com svarar ikkje</text>
<text transform="matrix(1 0 0 1 198.9145 419.855)" class="st2" style="font-family:'ProximaNova-Semibold'; font-size:10.3204px;">Prøv igjen seinare.</text>
</svg>
